<svg width="47" height="47" viewBox="0 0 47 47" fill="none" xmlns="http://www.w3.org/2000/svg">
<circle cx="23.5" cy="23.5" r="23.5" fill="#C9A8E7"/>
<path d="M35.7273 22.1174V18.1821C35.7273 16.8477 34.6922 15.7624 33.3844 15.6572L29.7297 9.27376C29.391 8.68338 28.8441 8.26142 28.1897 8.0862C27.5384 7.91218 26.8574 8.00358 26.2744 8.34285L13.7459 15.6367H11.5455C10.1416 15.6367 9 16.7782 9 18.1821V33.4546C9 34.8584 10.1416 36 11.5455 36H33.1818C34.5857 36 35.7273 34.8584 35.7273 33.4546V29.5192C36.4664 29.2556 37 28.5559 37 27.7274V23.9093C37 23.0807 36.4664 22.381 35.7273 22.1174ZM31.9055 15.6367H26.359L30.5189 13.2148L31.9055 15.6367ZM29.8866 12.1103L23.8295 15.6367H21.3171L29.2584 11.0131L29.8866 12.1103ZM26.9151 9.44277C27.2029 9.27435 27.539 9.22961 27.8604 9.3154C28.1854 9.40238 28.4564 9.61244 28.6248 9.90637L28.6261 9.9087L18.7877 15.6367H16.2754L26.9151 9.44277ZM34.4545 33.4546C34.4545 34.1561 33.8834 34.7273 33.1818 34.7273H11.5455C10.8439 34.7273 10.2728 34.1561 10.2728 33.4546V18.1821C10.2728 17.4805 10.8439 16.9094 11.5455 16.9094H33.1818C33.8834 16.9094 34.4545 17.4805 34.4545 18.1821V22.0002H30.6364C28.5309 22.0002 26.8182 23.7129 26.8182 25.8183C26.8182 27.9238 28.5309 29.6364 30.6364 29.6364H34.4545V33.4546ZM35.7273 27.7274C35.7273 28.0785 35.4421 28.3638 35.0909 28.3638H30.6364C29.2325 28.3638 28.0909 27.2222 28.0909 25.8183C28.0909 24.4145 29.2325 23.2729 30.6364 23.2729H35.0909C35.442 23.2729 35.7273 23.5581 35.7273 23.9093V27.7274Z" fill="white" stroke="white" stroke-width="0.25"/>
<path d="M30.6364 24.5457C29.9348 24.5457 29.3636 25.1168 29.3636 25.8183C29.3636 26.5199 29.9348 27.091 30.6364 27.091C31.3379 27.091 31.9091 26.5199 31.9091 25.8183C31.9091 25.1168 31.338 24.5457 30.6364 24.5457Z" fill="white" stroke="white" stroke-width="0.25"/>
</svg>
