<svg width="47" height="47" viewBox="0 0 47 47" fill="none" xmlns="http://www.w3.org/2000/svg">
<circle cx="23.5" cy="23.5" r="23.5" fill="#F08F91"/>
<path d="M37.4961 21.6685L34.9618 19.3592V11.702C34.9618 11.2148 34.5668 10.8198 34.0795 10.8198H27.9791C27.4918 10.8198 27.0968 11.2148 27.0968 11.702V12.1927L24.0361 9.4038C23.4453 8.86538 22.5544 8.86544 21.9638 9.40374L8.50378 21.6685C8.03058 22.0998 7.87419 22.7642 8.1054 23.3612C8.33667 23.9583 8.89976 24.344 9.54001 24.344H11.6898V36.6323C11.6898 37.1195 12.0847 37.5146 12.572 37.5146H19.9497C20.4369 37.5146 20.832 37.1196 20.832 36.6323V29.1712H25.168V36.6324C25.168 37.1196 25.5629 37.5146 26.0502 37.5146H33.4276C33.9148 37.5146 34.3099 37.1196 34.3098 36.6324V24.344H36.46C37.1002 24.344 37.6634 23.9583 37.8946 23.3613C38.1258 22.7642 37.9695 22.0998 37.4961 21.6685ZM33.4276 22.5795C32.9404 22.5795 32.5454 22.9745 32.5454 23.4618V35.7501H26.9325V28.289C26.9325 27.8018 26.5375 27.4067 26.0503 27.4067H19.9497C19.4625 27.4067 19.0675 27.8017 19.0675 28.289V35.7501H13.4542V23.4618C13.4542 22.9746 13.0592 22.5795 12.5719 22.5795H10.1237L23.0001 10.8467L27.385 14.8423C27.6433 15.0776 28.0161 15.1383 28.3356 14.9972C28.6552 14.856 28.8614 14.5395 28.8614 14.1901V12.5843H33.1974V19.7489C33.1974 19.9971 33.3019 20.2338 33.4855 20.401L35.8763 22.5795H33.4276Z" fill="white"/>
</svg>
