<svg width="47" height="47" viewBox="0 0 47 47" fill="none" xmlns="http://www.w3.org/2000/svg">
<circle cx="23.5" cy="23.5" r="23.5" fill="#F08F91"/>
<path d="M23.0732 10.1357L23.0731 10.1356C22.8747 9.95474 22.5837 9.95488 22.3855 10.1355L22.3854 10.1356L9.16824 22.1791C9.16823 22.1791 9.16823 22.1791 9.16822 22.1791C9.00879 22.3244 8.9581 22.5397 9.03599 22.7409L23.0732 10.1357ZM23.0732 10.1357L36.2902 22.179C36.2903 22.179 36.2903 22.179 36.2903 22.179C36.4497 22.3244 36.5005 22.5397 36.4227 22.7412C36.3447 22.9422 36.1622 23.0671 35.9466 23.0671H33.8352H32.8352V24.0671V36H25.8583V28.8072V27.8072H24.8583H20.6005H19.6005V28.8072V35.9999H12.6232V24.0671V23.0671M23.0732 10.1357L12.6232 23.0671M12.6232 23.0671H11.6232M12.6232 23.0671H11.6232M11.6232 23.0671H9.51223C9.29643 23.0671 9.11398 22.9421 9.03602 22.7409L11.6232 23.0671Z" stroke="white" stroke-width="2"/>
</svg>
